<svg width="102" height="37" xmlns="http://www.w3.org/2000/svg">

 <g>
  <title>background</title>
  <rect fill="none" id="canvas_background" height="39" width="104" y="-1" x="-1"/>
 </g>
 <g>
  <title>Layer 1</title>
  <path fill="#ff9900" fill-rule="evenodd" id="path7" d="m44.631911,24.417137c-3.017904,2.227219 -7.393341,3.41177 -11.16084,3.41177c-5.280537,0 -10.035312,-1.951853 -13.633914,-5.200855c-0.282403,-0.254935 -0.03042,-0.603853 0.309191,-0.406125c3.88214,2.259001 8.682999,3.619259 13.641632,3.619259c3.344801,0 7.021949,-0.693977 10.405116,-2.12915c0.510551,-0.216343 0.938242,0.336659 0.438815,0.705101z" clip-rule="evenodd"/>
  <path fill="#ff9900" fill-rule="evenodd" id="path9" d="m45.887971,22.983553c-0.385921,-0.494433 -2.55162,-0.23405 -3.524368,-0.118046c-0.294662,0.03496 -0.340292,-0.221791 -0.074687,-0.408395c1.727338,-1.213609 4.557956,-0.862874 4.886897,-0.457203c0.331665,0.410211 -0.086719,3.247867 -1.705772,4.602223c-0.24926,0.208397 -0.486034,0.097161 -0.375479,-0.177751c0.363901,-0.909412 1.179784,-2.946395 0.793409,-3.440828z" clip-rule="evenodd"/>
  <path fill="#ffffff" fill-rule="evenodd" id="path13" d="m42.431933,13.885575l0,-1.178876c0.000908,-0.17934 0.136207,-0.298975 0.298748,-0.298748l5.284169,-0.000454c0.169124,0.000227 0.304651,0.123041 0.305105,0.298067l-0.000454,1.011113c-0.001362,0.169578 -0.144153,0.390915 -0.397726,0.742331l-2.737316,3.908019c1.016108,-0.023836 2.090785,0.128035 3.013817,0.647212c0.208397,0.116911 0.264242,0.290349 0.28036,0.460154l0,1.258103c0,0.172983 -0.189555,0.373662 -0.388872,0.269691c-1.626544,-0.852205 -3.784979,-0.94528 -5.583371,0.010216c-0.184107,0.098069 -0.37616,-0.099658 -0.37616,-0.273096l0,-1.196129c0,-0.191144 0.003632,-0.518496 0.196593,-0.810207l3.171137,-4.549557l-2.760925,-0.000454c-0.168443,-0.000454 -0.303743,-0.120771 -0.305105,-0.297386z" clip-rule="evenodd"/>
  <path fill="#ffffff" fill-rule="evenodd" id="path15" d="m23.156306,21.249632l-1.607702,0c-0.153006,-0.010216 -0.275139,-0.125084 -0.287625,-0.271734l0.001135,-8.250995c0,-0.165265 0.138932,-0.297159 0.310326,-0.297159l1.497147,-0.000454c0.156639,0.007945 0.282403,0.126673 0.292392,0.277182l0,1.077174l0.029966,0c0.390234,-1.04176 1.125528,-1.527794 2.115983,-1.527794c1.005438,0 1.635625,0.486261 2.086017,1.527794c0.390007,-1.04176 1.275356,-1.527794 2.220863,-1.527794c0.675362,0 1.410655,0.277863 1.860821,0.903056c0.510324,0.694431 0.405444,1.701231 0.405444,2.587034l-0.001362,5.206985c0,0.164584 -0.138932,0.297159 -0.310099,0.297159l-1.605659,0c-0.161179,-0.01067 -0.288533,-0.138251 -0.288533,-0.296705l-0.000227,-4.374076c0,-0.347102 0.029966,-1.215425 -0.044948,-1.545274c-0.12009,-0.555499 -0.480131,-0.711911 -0.94528,-0.711911c-0.390234,0 -0.795452,0.260383 -0.96049,0.676951c-0.165265,0.416795 -0.150055,1.111226 -0.150055,1.580007l0,4.373622c0,0.164584 -0.138932,0.297159 -0.310099,0.297159l-1.605886,0c-0.161179,-0.01067 -0.288533,-0.138251 -0.288533,-0.296705l-0.001362,-4.374076c0,-0.920081 0.150055,-2.274438 -0.990455,-2.274438c-1.15572,0 -1.110545,1.319623 -1.110545,2.274438l-0.000681,4.373622c-0.000227,0.164357 -0.139386,0.296932 -0.310553,0.296932z" clip-rule="evenodd"/>
  <path fill="#ffffff" fill-rule="evenodd" id="path17" d="m52.868831,12.255853c2.386128,0 3.67624,2.048787 3.67624,4.653074c0,2.517568 -1.425184,4.514597 -3.67624,4.514597c-2.340952,0 -3.616535,-2.048787 -3.616535,-4.601542c0,-2.569327 1.290566,-4.566128 3.616535,-4.566128zm0.014983,1.684205c-1.185459,0 -1.260373,1.614513 -1.260373,2.621767c0,1.007027 -0.014756,3.160013 1.245617,3.160013c1.245617,0 1.305549,-1.736191 1.305549,-2.795204c0,-0.694658 -0.030193,-1.528021 -0.240179,-2.187946c-0.180248,-0.572979 -0.540517,-0.79863 -1.050614,-0.79863z" clip-rule="evenodd"/>
  <path fill="#ffffff" fill-rule="evenodd" id="path19" d="m59.639477,21.249632l-1.601573,0c-0.161179,-0.01067 -0.288533,-0.138251 -0.288533,-0.296705l-0.002497,-8.253946c0.013621,-0.150736 0.14665,-0.269237 0.308737,-0.269237l1.491245,-0.000454c0.140294,0.007037 0.25607,0.103064 0.285582,0.231326l0,1.261962l0.03042,0c0.450166,-1.128479 1.080352,-1.666725 2.190443,-1.666725c0.720311,0 1.425865,0.260383 1.876031,0.972294c0.420654,0.659698 0.420654,1.770924 0.420654,2.569554l0,5.192002c-0.018161,0.146423 -0.149374,0.259929 -0.308056,0.259929l-1.611788,0c-0.14892,-0.009762 -0.26901,-0.119182 -0.28649,-0.259929l0,-4.480091c0,-0.903056 0.105334,-2.222452 -1.005438,-2.222452c-0.390461,0 -0.750503,0.260383 -0.930297,0.659698c-0.225196,0.503514 -0.255389,1.007027 -0.255389,1.562754l0,4.442861c-0.002497,0.164584 -0.141429,0.297159 -0.31305,0.297159z" clip-rule="evenodd"/>
  <ellipse fill="#ffffff" transform="matrix(0.22701245,0,0,0.22701245,-45.559683,-17.567988) " fill-rule="evenodd" ry="3.312" rx="3.485" id="ellipse21" cy="168.109352" cx="492.081017" clip-rule="evenodd"/>
  <path fill="#f7f7f7" id="path23" d="m82.389984,21.251902c-0.166627,-0.005221 -0.299656,-0.135299 -0.299656,-0.296705l0,-8.252357c0.011351,-0.145515 0.134391,-0.261518 0.287625,-0.27128l0.590459,-0.000227c0.162314,0 0.295343,0.1185 0.30851,0.271734l0,1.203166c0.419746,-0.953225 1.201577,-1.700323 2.189762,-1.700323l0.061974,0.000908l0.059477,-0.000908c1.048116,0 1.815419,0.773431 2.100092,1.896916c0.44449,-1.10941 1.281485,-1.896916 2.38522,-1.896916l0.057207,0.000908l0.064472,-0.000908c0.780242,0 1.530291,0.503514 1.920525,1.267411c0.375025,0.729391 0.360269,1.701458 0.360269,2.517795l-0.000454,4.964081c0.000454,0.158228 -0.127127,0.286036 -0.288306,0.296705l-0.706236,0c-0.152325,-0.004767 -0.276955,-0.11396 -0.297159,-0.256297l0,-5.004489c0,-0.590686 0.029739,-1.215425 -0.210441,-1.753898c-0.245173,-0.550959 -0.712592,-0.893294 -1.215198,-0.918492c-0.561175,0.027696 -1.076266,0.435183 -1.409066,0.987958c-0.435637,0.712138 -0.420427,1.354583 -0.420427,2.187946l0,4.5037c-0.01975,0.137116 -0.138705,0.243811 -0.285809,0.253573l-0.702831,0c-0.166627,-0.005221 -0.300337,-0.135299 -0.300337,-0.296705l-0.003178,-5.29393c0,-0.486488 -0.029966,-1.05924 -0.254935,-1.493288c-0.259475,-0.499654 -0.725078,-0.823374 -1.213155,-0.849027c-0.506011,0.028377 -1.018151,0.414979 -1.321666,0.86628c-0.390007,0.572752 -0.465149,1.28489 -0.465149,2.014281l-0.000454,4.755684c0,0.158228 -0.127581,0.286036 -0.288533,0.296705l-0.702604,0z"/>
  <path fill="#ffffff" id="path25" d="m77.545311,21.425566c-2.280794,0 -3.301215,-2.326878 -3.301215,-4.653301c0,-2.448102 1.200669,-4.566355 3.496446,-4.566355l0.05925,0.000454l0.061974,-0.000454c2.2363,0 3.346845,2.257185 3.346845,4.583608c0,2.465582 -1.230634,4.636048 -3.542075,4.636048l-0.059023,-0.000908l-0.062201,0.000908zm0.168443,-1.129841c0.750503,-0.024517 1.342325,-0.489212 1.692832,-1.266275c0.315093,-0.694658 0.375025,-1.493061 0.375025,-2.256958c0,-0.83359 -0.090124,-1.701685 -0.480131,-2.413369c-0.349372,-0.622695 -0.951863,-1.017016 -1.590222,-1.040852c-0.710549,0.026106 -1.343914,0.506238 -1.664682,1.249022c-0.285128,0.642445 -0.375252,1.493288 -0.375252,2.205199c0,0.79863 0.105107,1.718938 0.43541,2.413369c0.320542,0.657655 0.938923,1.086255 1.607021,1.109864z"/>
  <path fill="#ffffff" id="path27" d="m70.417574,20.26122c1.024053,-0.032463 1.561619,-0.852886 1.784545,-1.916666c0.043586,-0.132575 0.145515,-0.234731 0.294662,-0.234731l0.677178,-0.002951c0.159817,0.008399 0.306694,0.130759 0.294435,0.279679c-0.312823,1.809516 -1.40498,3.039016 -2.961831,3.039016l-0.062655,-0.000908l-0.059023,0.000908c-2.265811,0 -3.241057,-2.274665 -3.241057,-4.583835c0,-2.291918 0.990228,-4.635821 3.256267,-4.635821l0.059931,0.000681l0.061747,-0.000681c1.572288,0 2.694411,1.211792 2.937995,3.022444c0,0.135753 -0.125992,0.253119 -0.273777,0.270372l-0.709868,-0.008399c-0.147558,-0.020885 -0.244946,-0.149147 -0.267194,-0.291257c-0.17094,-1.010659 -0.751638,-1.814511 -1.718711,-1.846292c-1.540733,0.049262 -1.979095,1.945497 -1.979095,3.402009c0,1.406115 0.365717,3.455584 1.906451,3.506434z"/>
  <path fill="#ffffff" fill-rule="evenodd" id="path29" d="m38.21949,17.30915c0,0.626554 0.014756,1.148456 -0.300791,1.705318c-0.255843,0.452663 -0.661741,0.730753 -1.112815,0.730753c-0.616793,0 -0.977743,-0.469916 -0.977743,-1.165709c0,-1.369112 1.228137,-1.618372 2.391349,-1.618372l0,0.34801zm1.620869,3.919597c-0.106696,0.095345 -0.259929,0.101929 -0.380019,0.037684c-0.533933,-0.444036 -0.629506,-0.649029 -0.921444,-1.071726c-0.882624,0.899196 -1.50759,1.16866 -2.650597,1.16866c-1.353448,0 -2.406332,-0.835406 -2.406332,-2.505536c0,-1.305322 0.70669,-2.192486 1.714398,-2.627669c0.872409,-0.38297 2.090558,-0.452209 3.022898,-0.556635l0,-0.208851c0,-0.38297 0.029966,-0.835406 -0.195458,-1.165936c-0.195458,-0.296024 -0.571617,-0.417703 -0.902602,-0.417703c-0.612934,0 -1.158218,0.314185 -1.291928,0.965484c-0.027923,0.144834 -0.133483,0.288079 -0.279225,0.29557l-1.557986,-0.16867c-0.131667,-0.029739 -0.27809,-0.135299 -0.240179,-0.335978c0.358226,-1.890333 2.065359,-2.461496 3.595196,-2.461496c0.782058,0 1.804749,0.208851 2.421315,0.800446c0.782058,0.730753 0.70669,1.705318 0.70669,2.766828l0,2.504628c0,0.753227 0.31305,1.08353 0.607031,1.489883c0.102383,0.146423 0.125765,0.320088 -0.005221,0.42701c-0.328487,0.275366 -0.912136,0.782058 -1.233132,1.06764l-0.003405,-0.003632z" clip-rule="evenodd"/>
  <path fill="#ffffff" fill-rule="evenodd" id="path31" d="m17.144789,17.30915c0,0.626554 0.014983,1.148456 -0.300791,1.705318c-0.255616,0.452663 -0.661741,0.730753 -1.112815,0.730753c-0.616339,0 -0.977516,-0.469916 -0.977516,-1.165709c0,-1.369112 1.228137,-1.618372 2.391122,-1.618372l0,0.34801zm1.620869,3.919597c-0.106469,0.095345 -0.259929,0.101929 -0.379792,0.037684c-0.53416,-0.444036 -0.629733,-0.649029 -0.921671,-1.071726c-0.882397,0.899196 -1.50759,1.16866 -2.65037,1.16866c-1.353675,0 -2.406332,-0.835406 -2.406332,-2.505536c0,-1.305322 0.706917,-2.192486 1.714398,-2.627669c0.872182,-0.38297 2.090558,-0.452209 3.022898,-0.556635l0,-0.208851c0,-0.38297 0.029966,-0.835406 -0.195458,-1.165936c-0.195685,-0.296024 -0.571844,-0.417703 -0.902374,-0.417703c-0.613161,0 -1.158445,0.314185 -1.292155,0.965484c-0.027923,0.144834 -0.133256,0.288079 -0.279225,0.29557l-1.558213,-0.16867c-0.131667,-0.029739 -0.27809,-0.135299 -0.239952,-0.335978c0.357999,-1.890333 2.065132,-2.461496 3.594969,-2.461496c0.782058,0 1.804522,0.208851 2.421315,0.800446c0.781831,0.730753 0.70669,1.705318 0.70669,2.766828l0,2.504628c0,0.753227 0.312823,1.08353 0.606804,1.489883c0.10261,0.146423 0.125538,0.320088 -0.005221,0.42701c-0.32826,0.275366 -0.911909,0.782058 -1.232905,1.06764l-0.003405,-0.003632z" clip-rule="evenodd"/>
 </g>
</svg>